<?xml version="1.0"?>
<svg width="32" height="32" xmlns="http://www.w3.org/2000/svg" xmlns:svg="http://www.w3.org/2000/svg" version="1.1">

 <metadata id="metadata90">image/svg+xmlGnome Symbolic Icon Theme</metadata>
 <title id="title9167">Gnome Symbolic Icon Theme</title>
 <g class="layer">
  <title>Layer 1</title>
  <path d="m23.84,12.17a14.62,14.62 0 1 1 -29.23,0a14.62,14.62 0 1 1 29.23,0z" fill="#d3d7cf" id="path3039" stroke="#46443f" stroke-miterlimit="4" stroke-width="2" transform="matrix(1 0 0 1 0 0) matrix(1.02454 0 0 1.02454 6.56348 3.53691)"/>
  <text fill="#000000" font-family="Sans" font-size="40px" font-style="normal" font-weight="normal" id="text4369" letter-spacing="0px" word-spacing="0px" x="-5.8" xml:space="preserve" y="10.39"/>
  <path d="m16.09,0.12c-8.78,0 -15.91,7.1 -15.91,15.87c0,8.76 7.12,15.87 15.91,15.87c8.78,0 15.91,-7.1 15.91,-15.87c0,-8.76 -7.12,-15.87 -15.91,-15.87zm9.18,14.74c-1.59,1.82 -4.06,2.43 -6.22,1.73l-7.87,9.03c-0.84,0.96 -2.3,1.06 -3.26,0.22s-1.06,-2.29 -0.23,-3.25l7.88,-9.04c-0.98,-2.04 -0.72,-4.55 0.86,-6.36c1.5,-1.72 3.78,-2.35 5.85,-1.83l-3.01,3.51l0.99,2.86l2.98,0.58l3.02,-3.52c0.82,1.98 0.52,4.34 -0.99,6.06z" fill="#d3d7cf" id="svg_4" stroke="#46443f"/>
 </g>
</svg>